<?xml version="1.0" standalone="no"?>
<!DOCTYPE svg PUBLIC "-//W3C//DTD SVG 20010904//EN"
 "http://www.w3.org/TR/2001/REC-SVG-20010904/DTD/svg10.dtd">
<svg version="1.0" xmlns="http://www.w3.org/2000/svg"
 width="500.000000pt" height="500.000000pt" viewBox="0 0 500.000000 500.000000"
 preserveAspectRatio="xMidYMid meet">
<metadata>
Created by potrace 1.14, written by Peter Selinger 2001-2017
</metadata>
<g transform="translate(0.000000,500.000000) scale(0.100000,-0.100000)"
fill="#000000" stroke="none">
<path d="M2580 4993 c-42 -7 -173 -44 -210 -60 -253 -109 -431 -300 -516 -553
-10 -30 -19 -56 -20 -58 -1 -2 -23 11 -50 28 -88 56 -243 100 -330 94 -169
-12 -242 -37 -360 -120 -106 -74 -182 -176 -225 -301 -43 -124 -45 -277 -5
-390 17 -48 13 -55 -22 -42 -14 5 -69 12 -121 15 -85 5 -118 2 -209 -20 -41
-9 -97 -30 -112 -41 -8 -7 -30 -17 -47 -24 -18 -7 -41 -21 -52 -30 -11 -9 -40
-33 -65 -54 -100 -84 -180 -218 -216 -363 -24 -97 -22 -257 5 -342 61 -198
186 -349 360 -435 147 -73 155 -74 925 -75 377 0 692 -1 702 -1 13 -1 6 -25
-39 -138 -30 -76 -61 -151 -68 -168 -7 -16 -65 -163 -130 -325 -64 -162 -122
-308 -130 -325 -36 -85 -75 -197 -75 -220 0 -26 30 -64 52 -66 7 -1 171 -3
363 -4 193 -2 356 -3 362 -4 9 -1 5 -15 -11 -43 -13 -24 -43 -81 -68 -128 -25
-47 -56 -105 -70 -130 -14 -25 -46 -83 -70 -130 -25 -47 -57 -105 -70 -130
-89 -160 -180 -335 -183 -349 -8 -41 51 -73 88 -48 24 16 28 20 256 236 84 80
172 164 196 186 23 22 115 110 205 195 90 85 175 166 190 180 97 91 368 348
437 416 63 61 83 87 83 107 0 53 -16 56 -345 56 -457 0 -407 -3 -393 26 6 14
15 25 20 25 4 0 8 4 8 9 0 5 47 83 105 173 57 89 119 187 137 217 18 29 40 64
48 76 8 13 50 79 93 147 43 67 84 131 92 142 13 17 38 18 477 21 255 1 470 4
478 8 8 3 29 8 45 10 107 16 253 72 360 139 17 10 38 21 48 24 9 4 17 10 17
14 0 5 9 11 19 15 37 11 209 190 267 275 136 202 196 408 189 650 -5 183 -36
313 -111 463 -89 177 -211 319 -364 423 -224 153 -494 221 -760 190 -46 -6
-53 -7 -130 -25 -25 -6 -50 -11 -57 -11 -7 0 -28 33 -47 74 -115 250 -351 443
-615 503 -62 14 -277 24 -331 16z"/>
<path d="M1304 1885 c-256 -154 -269 -164 -305 -239 -24 -50 -29 -72 -27 -121
1 -33 5 -64 9 -70 4 -5 10 -21 14 -35 14 -46 74 -108 133 -137 46 -23 70 -28
127 -28 116 0 198 56 251 168 21 47 22 59 18 211 -7 260 -12 367 -15 370 -2 1
-95 -52 -205 -119z"/>
<path d="M3841 1905 c-96 -58 -176 -105 -178 -105 -2 0 -9 -5 -16 -10 -7 -6
-34 -25 -62 -43 -133 -89 -148 -296 -31 -410 113 -110 294 -111 397 -3 69 72
74 92 73 291 -1 99 -4 226 -5 282 -2 57 -4 103 -4 103 0 -1 -78 -48 -174 -105z"/>
<path d="M489 1637 c-19 -12 -110 -66 -201 -121 -187 -111 -225 -142 -259
-206 -33 -64 -33 -175 2 -244 46 -93 146 -156 247 -156 51 0 121 18 140 37 7
7 17 13 22 13 16 0 72 66 93 110 18 39 21 62 20 165 -1 268 -8 425 -18 424 -5
0 -26 -11 -46 -22z"/>
<path d="M4440 1238 c-63 -39 -135 -82 -160 -96 -192 -109 -239 -164 -248
-292 -4 -57 0 -77 20 -122 88 -190 336 -230 468 -74 56 67 63 98 61 266 -1 85
-4 187 -6 225 -2 39 -4 91 -4 118 -1 26 -4 47 -8 46 -5 0 -60 -32 -123 -71z"/>
<path d="M1020 771 c-119 -71 -232 -146 -252 -167 -79 -81 -96 -201 -44 -309
83 -169 313 -207 445 -73 71 72 76 92 75 298 -1 138 -7 384 -9 380 0 0 -97
-59 -215 -129z"/>
<path d="M3523 630 c-229 -135 -270 -167 -302 -232 -51 -106 -17 -257 73 -328
60 -46 102 -63 170 -65 86 -3 150 21 205 77 72 72 76 87 76 318 0 113 -2 239
-5 280 l-5 76 -212 -126z"/>
</g>
</svg>
